<svg width="1440" height="621" viewBox="0 0 1440 621" fill="none" xmlns="http://www.w3.org/2000/svg">
<g clip-path="url(#clip0_908_219)">
<path d="M137.26 423V358.5L294.26 140H396.76L244.26 358.5L197.26 344.5H470.76V423H137.26ZM322.26 490V423L325.26 344.5V285H418.76V490H322.26ZM979.643 423V358.5L1136.64 140H1239.14L1086.64 358.5L1039.64 344.5H1313.14V423H979.643ZM1164.64 490V423L1167.64 344.5V285H1261.14V490H1164.64Z" fill="#1B978A" fill-opacity="0.2"/>
<path d="M720.357 497C690.357 497 663.691 489.833 640.357 475.5C617.357 461.167 599.191 440.5 585.857 413.5C572.524 386.5 565.857 353.667 565.857 315C565.857 276.333 572.524 243.5 585.857 216.5C599.191 189.5 617.357 168.833 640.357 154.5C663.691 140.167 690.357 133 720.357 133C750.024 133 776.357 140.167 799.357 154.5C822.691 168.833 841.024 189.5 854.357 216.5C867.691 243.5 874.357 276.333 874.357 315C874.357 353.667 867.691 386.5 854.357 413.5C841.024 440.5 822.691 461.167 799.357 475.5C776.357 489.833 750.024 497 720.357 497ZM720.357 416C731.024 416 740.357 412.667 748.357 406C756.691 399.333 763.191 388.667 767.857 374C772.524 359 774.857 339.333 774.857 315C774.857 290.333 772.524 270.667 767.857 256C763.191 241.333 756.691 230.667 748.357 224C740.357 217.333 731.024 214 720.357 214C709.691 214 700.191 217.333 691.857 224C683.857 230.667 677.357 241.333 672.357 256C667.691 270.667 665.357 290.333 665.357 315C665.357 339.333 667.691 359 672.357 374C677.357 388.667 683.857 399.333 691.857 406C700.191 412.667 709.691 416 720.357 416Z" fill="#F5F5DC"/>
<path d="M665.775 316.126C665.168 316.126 664.641 316.009 664.193 315.776C663.745 315.533 663.418 315.146 663.213 314.614C663.007 314.082 662.961 313.373 663.073 312.486C663.166 311.618 663.367 310.871 663.675 310.246C663.992 309.621 664.403 309.14 664.907 308.804C665.42 308.459 666.013 308.286 666.685 308.286C667.235 308.286 667.753 308.421 668.239 308.692C668.733 308.963 669.13 309.355 669.429 309.868C669.737 310.372 669.891 310.993 669.891 311.73C669.891 312.365 669.783 312.948 669.569 313.48C669.354 314.012 669.055 314.479 668.673 314.88C668.299 315.272 667.865 315.58 667.371 315.804C666.876 316.019 666.344 316.126 665.775 316.126ZM660.063 318.716L662.121 308.412H664.641L664.375 309.686L663.885 312.192L663.535 314.684L662.723 318.716H660.063ZM665.397 313.984C665.751 313.984 666.064 313.895 666.335 313.718C666.605 313.541 666.815 313.293 666.965 312.976C667.123 312.659 667.203 312.29 667.203 311.87C667.203 311.431 667.077 311.081 666.825 310.82C666.573 310.549 666.218 310.414 665.761 310.414C665.415 310.414 665.103 310.507 664.823 310.694C664.552 310.871 664.337 311.119 664.179 311.436C664.029 311.753 663.955 312.122 663.955 312.542C663.955 312.981 664.081 313.331 664.333 313.592C664.585 313.853 664.939 313.984 665.397 313.984ZM673.801 316.126C673.26 316.126 672.742 315.991 672.247 315.72C671.752 315.449 671.351 315.057 671.043 314.544C670.744 314.031 670.595 313.405 670.595 312.668C670.595 312.033 670.702 311.45 670.917 310.918C671.132 310.386 671.426 309.924 671.799 309.532C672.182 309.14 672.62 308.837 673.115 308.622C673.619 308.398 674.151 308.286 674.711 308.286C675.327 308.286 675.854 308.407 676.293 308.65C676.741 308.883 677.068 309.266 677.273 309.798C677.478 310.321 677.525 311.03 677.413 311.926C677.329 312.775 677.128 313.517 676.811 314.152C676.494 314.787 676.083 315.277 675.579 315.622C675.075 315.958 674.482 316.126 673.801 316.126ZM674.725 313.984C675.08 313.984 675.392 313.895 675.663 313.718C675.934 313.541 676.144 313.293 676.293 312.976C676.452 312.659 676.531 312.29 676.531 311.87C676.531 311.431 676.405 311.081 676.153 310.82C675.901 310.549 675.546 310.414 675.089 310.414C674.744 310.414 674.431 310.507 674.151 310.694C673.88 310.871 673.666 311.119 673.507 311.436C673.358 311.753 673.283 312.122 673.283 312.542C673.283 312.981 673.409 313.331 673.661 313.592C673.913 313.853 674.268 313.984 674.725 313.984ZM675.845 316L676.111 314.726L676.615 312.22L676.951 309.714L677.217 308.412H679.877L678.365 316H675.845ZM683.507 318.842C682.751 318.842 682.061 318.758 681.435 318.59C680.81 318.431 680.269 318.189 679.811 317.862L681.001 316.014C681.3 316.247 681.678 316.434 682.135 316.574C682.602 316.723 683.083 316.798 683.577 316.798C684.268 316.798 684.777 316.649 685.103 316.35C685.43 316.061 685.649 315.641 685.761 315.09L685.999 313.914L686.531 311.94L686.951 309.798L687.217 308.412H689.751L688.519 314.6C688.221 316.103 687.642 317.185 686.783 317.848C685.934 318.511 684.842 318.842 683.507 318.842ZM683.703 315.608C683.106 315.608 682.555 315.482 682.051 315.23C681.547 314.969 681.141 314.6 680.833 314.124C680.535 313.639 680.385 313.055 680.385 312.374C680.385 311.805 680.488 311.273 680.693 310.778C680.908 310.283 681.202 309.849 681.575 309.476C681.958 309.103 682.401 308.813 682.905 308.608C683.409 308.393 683.955 308.286 684.543 308.286C685.103 308.286 685.598 308.393 686.027 308.608C686.466 308.823 686.793 309.177 687.007 309.672C687.231 310.167 687.287 310.839 687.175 311.688C687.082 312.519 686.881 313.228 686.573 313.816C686.275 314.395 685.883 314.838 685.397 315.146C684.912 315.454 684.347 315.608 683.703 315.608ZM684.487 313.48C684.842 313.48 685.15 313.405 685.411 313.256C685.682 313.107 685.892 312.897 686.041 312.626C686.2 312.346 686.279 312.024 686.279 311.66C686.279 311.287 686.153 310.988 685.901 310.764C685.659 310.531 685.313 310.414 684.865 310.414C684.511 310.414 684.198 310.493 683.927 310.652C683.657 310.801 683.442 311.016 683.283 311.296C683.134 311.567 683.059 311.884 683.059 312.248C683.059 312.621 683.185 312.92 683.437 313.144C683.699 313.368 684.049 313.48 684.487 313.48ZM694.233 316.126C693.421 316.126 692.711 315.986 692.105 315.706C691.507 315.417 691.041 315.015 690.705 314.502C690.369 313.979 690.201 313.368 690.201 312.668C690.201 311.828 690.392 311.081 690.775 310.428C691.157 309.765 691.694 309.243 692.385 308.86C693.075 308.477 693.878 308.286 694.793 308.286C695.567 308.286 696.23 308.426 696.781 308.706C697.341 308.986 697.77 309.378 698.069 309.882C698.377 310.377 698.531 310.955 698.531 311.618C698.531 311.842 698.517 312.057 698.489 312.262C698.461 312.467 698.423 312.668 698.377 312.864H692.287L692.539 311.464H697.145L696.039 311.87C696.113 311.506 696.099 311.203 695.997 310.96C695.903 310.708 695.74 310.517 695.507 310.386C695.283 310.246 695.003 310.176 694.667 310.176C694.237 310.176 693.883 310.283 693.603 310.498C693.332 310.713 693.127 311.007 692.987 311.38C692.856 311.744 692.791 312.141 692.791 312.57C692.791 313.093 692.935 313.48 693.225 313.732C693.514 313.975 693.948 314.096 694.527 314.096C694.863 314.096 695.189 314.045 695.507 313.942C695.833 313.83 696.118 313.676 696.361 313.48L697.467 315.146C696.991 315.501 696.473 315.753 695.913 315.902C695.362 316.051 694.802 316.126 694.233 316.126ZM709.209 308.286C709.853 308.286 710.399 308.421 710.847 308.692C711.295 308.953 711.612 309.345 711.799 309.868C711.995 310.381 712.013 311.025 711.855 311.8L711.015 316H708.355L709.139 312.052C709.241 311.567 709.209 311.193 709.041 310.932C708.882 310.671 708.583 310.54 708.145 310.54C707.697 310.54 707.319 310.68 707.011 310.96C706.703 311.24 706.488 311.669 706.367 312.248L705.611 316H702.951L704.463 308.412H706.983L706.549 310.54L706.213 309.924C706.577 309.355 707.025 308.939 707.557 308.678C708.098 308.417 708.649 308.286 709.209 308.286ZM716.967 316.126C716.165 316.126 715.465 315.981 714.867 315.692C714.27 315.403 713.808 315.001 713.481 314.488C713.155 313.965 712.991 313.359 712.991 312.668C712.991 311.828 713.192 311.081 713.593 310.428C713.995 309.765 714.545 309.243 715.245 308.86C715.945 308.477 716.748 308.286 717.653 308.286C718.465 308.286 719.165 308.431 719.753 308.72C720.351 309 720.813 309.397 721.139 309.91C721.466 310.423 721.629 311.03 721.629 311.73C721.629 312.57 721.429 313.321 721.027 313.984C720.626 314.647 720.075 315.169 719.375 315.552C718.675 315.935 717.873 316.126 716.967 316.126ZM717.121 314.012C717.476 314.012 717.789 313.923 718.059 313.746C718.33 313.559 718.54 313.307 718.689 312.99C718.848 312.673 718.927 312.299 718.927 311.87C718.927 311.45 718.801 311.1 718.549 310.82C718.307 310.54 717.957 310.4 717.499 310.4C717.145 310.4 716.832 310.489 716.561 310.666C716.291 310.843 716.076 311.095 715.917 311.422C715.768 311.739 715.693 312.113 715.693 312.542C715.693 312.99 715.819 313.349 716.071 313.62C716.323 313.881 716.673 314.012 717.121 314.012ZM725.424 316.126C724.836 316.126 724.332 316.014 723.912 315.79C723.492 315.557 723.193 315.221 723.016 314.782C722.838 314.334 722.81 313.802 722.932 313.186L724.22 306.718H726.88L725.592 313.172C725.545 313.461 725.578 313.685 725.69 313.844C725.802 313.993 725.993 314.068 726.264 314.068C726.404 314.068 726.539 314.049 726.67 314.012C726.8 313.975 726.931 313.919 727.062 313.844L727.398 315.678C727.118 315.837 726.805 315.949 726.46 316.014C726.124 316.089 725.778 316.126 725.424 316.126ZM722.316 310.68L722.722 308.692H728.21L727.818 310.68H722.316ZM732.708 316L734.234 308.384C734.411 307.516 734.798 306.816 735.396 306.284C735.993 305.752 736.796 305.486 737.804 305.486C738.168 305.486 738.508 305.519 738.826 305.584C739.143 305.649 739.414 305.752 739.638 305.892L738.616 307.754C738.382 307.605 738.121 307.53 737.832 307.53C737.533 307.53 737.3 307.614 737.132 307.782C736.973 307.941 736.856 308.193 736.782 308.538L736.67 309.112L736.53 310.176L735.368 316H732.708ZM732.652 310.68L733.058 308.692H738.546L738.154 310.68H732.652ZM742.219 316.126C741.417 316.126 740.717 315.981 740.119 315.692C739.522 315.403 739.06 315.001 738.733 314.488C738.407 313.965 738.243 313.359 738.243 312.668C738.243 311.828 738.444 311.081 738.845 310.428C739.247 309.765 739.797 309.243 740.497 308.86C741.197 308.477 742 308.286 742.905 308.286C743.717 308.286 744.417 308.431 745.005 308.72C745.603 309 746.065 309.397 746.391 309.91C746.718 310.423 746.881 311.03 746.881 311.73C746.881 312.57 746.681 313.321 746.279 313.984C745.878 314.647 745.327 315.169 744.627 315.552C743.927 315.935 743.125 316.126 742.219 316.126ZM742.373 314.012C742.728 314.012 743.041 313.923 743.311 313.746C743.582 313.559 743.792 313.307 743.941 312.99C744.1 312.673 744.179 312.299 744.179 311.87C744.179 311.45 744.053 311.1 743.801 310.82C743.559 310.54 743.209 310.4 742.751 310.4C742.397 310.4 742.084 310.489 741.813 310.666C741.543 310.843 741.328 311.095 741.169 311.422C741.02 311.739 740.945 312.113 740.945 312.542C740.945 312.99 741.071 313.349 741.323 313.62C741.575 313.881 741.925 314.012 742.373 314.012ZM750.578 316.126C749.962 316.126 749.425 315.995 748.968 315.734C748.52 315.463 748.202 315.067 748.016 314.544C747.829 314.021 747.81 313.373 747.96 312.598L748.8 308.412H751.46L750.676 312.346C750.573 312.831 750.601 313.205 750.76 313.466C750.928 313.727 751.222 313.858 751.642 313.858C752.09 313.858 752.463 313.723 752.762 313.452C753.07 313.172 753.28 312.743 753.392 312.164L754.148 308.412H756.808L755.296 316H752.776L753.21 313.858L753.546 314.474C753.182 315.043 752.734 315.463 752.202 315.734C751.679 315.995 751.138 316.126 750.578 316.126ZM763.267 308.286C763.911 308.286 764.457 308.421 764.905 308.692C765.353 308.953 765.67 309.345 765.857 309.868C766.053 310.381 766.072 311.025 765.913 311.8L765.073 316H762.413L763.197 312.052C763.3 311.567 763.267 311.193 763.099 310.932C762.94 310.671 762.642 310.54 762.203 310.54C761.755 310.54 761.377 310.68 761.069 310.96C760.761 311.24 760.546 311.669 760.425 312.248L759.669 316H757.009L758.521 308.412H761.041L760.607 310.54L760.271 309.924C760.635 309.355 761.083 308.939 761.615 308.678C762.156 308.417 762.707 308.286 763.267 308.286ZM770.312 316.126C769.771 316.126 769.253 315.991 768.758 315.72C768.273 315.449 767.876 315.057 767.568 314.544C767.26 314.031 767.106 313.405 767.106 312.668C767.106 312.033 767.213 311.45 767.428 310.918C767.643 310.386 767.937 309.924 768.31 309.532C768.693 309.14 769.131 308.837 769.626 308.622C770.13 308.398 770.667 308.286 771.236 308.286C771.787 308.286 772.267 308.379 772.678 308.566C773.098 308.753 773.425 309.056 773.658 309.476C773.891 309.887 774.008 310.428 774.008 311.1C774.008 311.772 773.929 312.411 773.77 313.018C773.611 313.615 773.373 314.147 773.056 314.614C772.748 315.081 772.361 315.449 771.894 315.72C771.437 315.991 770.909 316.126 770.312 316.126ZM771.236 313.984C771.6 313.984 771.913 313.895 772.174 313.718C772.445 313.541 772.655 313.293 772.804 312.976C772.963 312.659 773.042 312.29 773.042 311.87C773.042 311.431 772.916 311.081 772.664 310.82C772.412 310.549 772.062 310.414 771.614 310.414C771.269 310.414 770.956 310.507 770.676 310.694C770.405 310.871 770.191 311.119 770.032 311.436C769.883 311.753 769.808 312.122 769.808 312.542C769.808 312.981 769.934 313.331 770.186 313.592C770.438 313.853 770.788 313.984 771.236 313.984ZM772.356 316L772.622 314.726L773.112 312.22L773.462 309.714L774.288 305.612H776.948L774.876 316H772.356Z" fill="#1B978A" fill-opacity="0.2"/>
</g>
<defs>
<clipPath id="clip0_908_219">
<rect width="1440" height="621" fill="white"/>
</clipPath>
</defs>
</svg>
