<svg viewBox="0 0 24 24" xmlns="http://www.w3.org/2000/svg"><path d="M19.611 7.292a7.959 7.959 0 0 0 3.5-.421M6.868 23.131A7.952 7.952 0 0 0 6.7 17.3a8.11 8.11 0 0 1 1.764-8.84 8.2 8.2 0 0 1 6.673-2.339" fill="none" stroke="#f5f5dc" stroke-linecap="round" stroke-miterlimit="10" class="stroke-000000"></path><path d="M9.137 17.9a8.206 8.206 0 0 0 6.4-2.365A8.114 8.114 0 0 0 17.3 6.692a7.949 7.949 0 0 1-.171-5.823M.884 17.121a7.954 7.954 0 0 1 3.728-.4M12.606 6.238l5.152 5.152M16.821 1.968l5.207 5.206M1.972 16.817l5.207 5.207M9.625 7.5l6.872 6.871M6.242 12.601l5.152 5.153M7.503 9.621l6.872 6.871" fill="none" stroke="#f5f5dc" stroke-linecap="round" stroke-miterlimit="10" class="stroke-000000"></path></svg>