<svg viewBox="0 0 512 512" xml:space="preserve" xmlns="http://www.w3.org/2000/svg" enable-background="new 0 0 512 512"><path d="M337 256c0-48.8-23.7-94.6-62.7-123 39-28.4 62.7-74.2 62.7-123h-20c0 17.4-3.5 34.5-10 50.2h-41.8v20h31.5c-10.3 16.3-24.1 30.5-40.7 41.1-29.2-18.7-49.6-48-57.5-81.1h48.2v-20h-51.4c-.3-3.4-.4-6.7-.4-10.2h-20c0 48.8 23.7 94.6 62.7 123-39 28.4-62.7 74.2-62.7 123s23.7 94.6 62.7 123c-39 28.4-62.7 74.2-62.7 123h20c0-17.4 3.5-34.5 10-50.2h41.8v-20h-31.5c10.3-16.3 24.1-30.5 40.7-41.1 29.2 18.7 49.6 48 57.5 81.1h-48.2v20h51.4c.3 3.4.4 6.7.4 10.2h20c0-48.8-23.7-94.6-62.7-123 39-28.4 62.7-74.2 62.7-123zm-81 111.3c-29.2-18.7-49.8-48.2-57.5-81.4h48.3v-20h-51.4c-.2-3.3-.4-6.5-.4-9.8 0-17.4 3.5-34.5 10-50.2h41.8v-20h-31.5c10.3-16.3 24.1-30.5 40.7-41.1 29.2 18.7 49.6 48 57.5 81.1h-48.2v20h51.4c.3 3.4.4 6.7.4 10.2 0 17.3-3.5 34.2-9.9 49.8h-41.9v20H297c-10.4 16.4-24.2 30.7-41 41.4z" fill="#f8f9fa" class="fill-000000"></path><path d="M266.8 185.8h20v20h-20zM225.2 225.8h20v20h-20zM266.8 265.8h20v20h-20zM225.2 305.8h20v20h-20zM266.8 431.8h20v20h-20zM225.2 471.8h20v20h-20zM225.2 60.2h20v20h-20zM266.8 20.2h20v20h-20z" fill="#f8f9fa" class="fill-000000"></path></svg>