<svg viewBox="0 0 1151 1151" xml:space="preserve" xmlns="http://www.w3.org/2000/svg" fill-rule="evenodd" clip-rule="evenodd" stroke-linejoin="round" stroke-miterlimit="2"><path d="M883.45 576.26c0 163.67-131.78 296.35-294.33 296.35-162.55 0-294.34-132.68-294.34-296.35 0-163.67 131.78-296.36 294.34-296.36 162.56 0 294.33 132.69 294.33 296.36M1206.34 576.26c0 154.06-65.89 279-147.17 279-81.28 0-147.17-124.94-147.17-279s65.88-279 147.16-279 147.17 124.9 147.17 279M1338.41 576.26c0 138-23.17 249.94-51.76 249.94-28.59 0-51.75-111.91-51.75-249.94s23.17-249.94 51.75-249.94 51.76 111.9 51.76 249.94" transform="translate(-246.226 -1.336)" fill-rule="nonzero" fill="#f8f9fa" class="fill-000000"></path><path d="M1633.77 0h-296.29v.25H296.29V0H0v1150.07h119.51v.44h1410.41v-.44h103.85V0Zm-296.29 296.54v557.67H296.29V296.54h1041.19Z" transform="translate(-246.226 -1.336)" fill="none" fill-rule="nonzero"></path></svg>